# xmcd CD database file
#
# Track frame offsets:
#	150
#	24725
#	41260
#	67920
#	81352
#	99442
#	121205
#	156050
#	179665
#
# Disc length: 2653 seconds
#
# Revision: 8
# Processed by: cddbd v1.5.2PL0 Copyright (c) Steve Scherf et al.
# Submitted via: CDex 1.70beta2
#
DISCID=6b0a5b09
DTITLE=Art Pepper - Meets The Rhythm Section
DYEAR=1957
DGENRE=Jazz
TTITLE0=You'd Be So Nice To Come Home To
TTITLE1=Red Pepper Blues
TTITLE2=Imagination
TTITLE3=Waltz Me Blues
TTITLE4=Straight Life
TTITLE5=Jazz Me Blues
TTITLE6=Tin Tin Deo
TTITLE7=Star Eyes
TTITLE8=Birks Works
EXTD=YEAR: 1957
EXTT0=
EXTT1=
EXTT2=
EXTT3=
EXTT4=
EXTT5=
EXTT6=
EXTT7=
EXTT8=
PLAYORDER=
